<svg viewBox="0 0 1370 621" fill="none" xmlns="http://www.w3.org/2000/svg">
<path d="M740.5 620.883C870 19.5852 323.5 -238.617 226 274.383C357 -121.915 758 71.0852 740.5 620.883Z" fill="#CDCE10"/>
<path d="M856.595 302.25C864.995 302.25 872.061 303 877.795 304.5C883.528 306 889.261 308.583 894.995 312.25C895.928 312.917 896.461 313.5 896.595 314C896.728 314.5 896.928 315.75 897.195 317.75L899.595 347.5C899.595 348 899.195 348.333 898.395 348.5C897.728 348.5 897.328 348.25 897.195 347.75C891.061 319.917 877.328 306 855.995 306C844.795 306 834.928 309.083 826.395 315.25C817.861 321.417 811.261 330.25 806.595 341.75C801.928 353.083 799.595 366.333 799.595 381.5C799.595 396 802.128 409.333 807.195 421.5C812.395 433.5 819.328 443 827.995 450C836.795 457 846.328 460.5 856.595 460.5C867.528 460.5 876.395 457.167 883.195 450.5C889.995 443.833 895.195 433.667 898.795 420C898.795 419.667 899.128 419.5 899.795 419.5C900.728 419.5 901.195 419.75 901.195 420.25L899.195 447.75C899.061 449.75 898.861 451 898.595 451.5C898.328 452 897.795 452.583 896.995 453.25C890.061 457.417 883.528 460.333 877.395 462C871.395 463.667 864.461 464.5 856.595 464.5C842.595 464.5 830.061 461.083 818.995 454.25C808.061 447.25 799.528 437.5 793.395 425C787.261 412.5 784.195 398.167 784.195 382C784.195 366.333 787.328 352.5 793.595 340.5C799.861 328.333 808.461 318.917 819.395 312.25C830.461 305.583 842.861 302.25 856.595 302.25ZM1006.9 458.25C1007.3 458.25 1007.5 458.75 1007.5 459.75C1007.5 460.75 1007.3 461.25 1006.9 461.25C1003.84 461.25 1001.37 461.167 999.504 461L988.704 460.75L977.904 461C976.037 461.167 973.571 461.25 970.504 461.25C970.104 461.25 969.904 460.75 969.904 459.75C969.904 458.75 970.104 458.25 970.504 458.25C974.104 458.25 976.771 457.833 978.504 457C980.237 456 981.437 454.333 982.104 452C982.771 449.5 983.104 445.833 983.104 441V401.25C983.104 391.417 981.571 384.167 978.504 379.5C975.571 374.667 970.971 372.25 964.704 372.25C960.571 372.25 956.371 373.667 952.104 376.5C947.837 379.167 943.971 382.917 940.504 387.75V441C940.504 445.833 940.837 449.5 941.504 452C942.171 454.333 943.371 456 945.104 457C946.837 457.833 949.504 458.25 953.104 458.25C953.504 458.25 953.704 458.75 953.704 459.75C953.704 460.75 953.504 461.25 953.104 461.25C950.037 461.25 947.571 461.167 945.704 461L934.904 460.75L924.104 461C922.237 461.167 919.771 461.25 916.704 461.25C916.304 461.25 916.104 460.75 916.104 459.75C916.104 458.75 916.304 458.25 916.704 458.25C920.304 458.25 922.971 457.833 924.704 457C926.437 456 927.637 454.333 928.304 452C928.971 449.5 929.304 445.833 929.304 441V311.75C929.304 305.75 928.837 301.417 927.904 298.75C926.971 296.083 925.304 294.75 922.904 294.75C920.904 294.75 917.837 295.917 913.704 298.25H913.304C912.904 298.25 912.571 297.833 912.304 297C912.037 296.167 912.171 295.667 912.704 295.5L938.104 280H938.704C939.237 280 939.637 280.25 939.904 280.75C940.304 281.083 940.504 281.5 940.504 282V383.5C945.571 376.167 950.571 370.833 955.504 367.5C960.571 364 965.837 362.25 971.304 362.25C978.637 362.25 984.304 364.833 988.304 370C992.304 375.167 994.304 382.667 994.304 392.5V441C994.304 445.833 994.637 449.5 995.304 452C995.971 454.333 997.171 456 998.904 457C1000.64 457.833 1003.3 458.25 1006.9 458.25ZM1108.71 447C1109.24 447 1109.58 447.417 1109.71 448.25C1109.98 448.917 1109.84 449.417 1109.31 449.75L1085.91 463.5L1085.11 463.75C1083.78 463.75 1082.51 461.833 1081.31 458C1080.11 454.167 1079.51 449.167 1079.51 443V442C1074.31 449.333 1069.11 454.75 1063.91 458.25C1058.71 461.583 1053.31 463.25 1047.71 463.25C1041.04 463.25 1035.84 460.667 1032.11 455.5C1028.38 450.167 1026.51 442.5 1026.51 432.5V394.25C1026.51 387.75 1026.04 383.083 1025.11 380.25C1024.18 377.25 1022.64 375.75 1020.51 375.75C1018.64 375.75 1016.38 376.583 1013.71 378.25H1013.51C1012.98 378.25 1012.58 377.833 1012.31 377C1012.04 376 1012.18 375.417 1012.71 375.25L1034.91 362.75L1035.71 362.5C1036.11 362.5 1036.51 362.75 1036.91 363.25C1037.44 363.583 1037.71 364 1037.71 364.5V424.25C1037.71 443.583 1043.31 453.25 1054.51 453.25C1058.78 453.25 1063.11 451.917 1067.51 449.25C1071.91 446.417 1075.91 442.583 1079.51 437.75V394.25C1079.51 387.583 1079.04 382.833 1078.11 380C1077.31 377.167 1075.78 375.75 1073.51 375.75C1071.64 375.75 1069.38 376.583 1066.71 378.25H1066.51C1065.98 378.25 1065.58 377.833 1065.31 377C1065.18 376 1065.38 375.417 1065.91 375.25L1088.11 362.75L1088.71 362.5C1089.11 362.5 1089.51 362.75 1089.91 363.25C1090.44 363.583 1090.71 364 1090.71 364.5V434.5C1090.71 440.167 1091.24 444.25 1092.31 446.75C1093.38 449.25 1095.18 450.5 1097.71 450.5C1099.98 450.5 1103.51 449.333 1108.31 447H1108.71ZM1164.94 362.5C1167.87 362.5 1170.67 363.5 1173.34 365.5C1176.01 367.5 1177.34 369.917 1177.34 372.75C1177.34 374.917 1176.74 376.75 1175.54 378.25C1174.47 379.75 1172.87 380.5 1170.74 380.5C1169.54 380.5 1168.47 380.25 1167.54 379.75C1166.74 379.083 1165.74 378.167 1164.54 377C1163.34 375.667 1162.21 374.667 1161.14 374C1160.07 373.333 1158.81 373 1157.34 373C1155.61 373 1153.74 373.917 1151.74 375.75C1149.87 377.583 1146.87 381.5 1142.74 387.5V441C1142.74 446 1143.21 449.667 1144.14 452C1145.21 454.333 1147.07 456 1149.74 457C1152.41 457.833 1156.54 458.25 1162.14 458.25C1162.67 458.25 1162.94 458.75 1162.94 459.75C1162.94 460.75 1162.67 461.25 1162.14 461.25C1157.87 461.25 1154.47 461.167 1151.94 461L1137.14 460.75L1126.14 461C1124.41 461.167 1122.01 461.25 1118.94 461.25C1118.54 461.25 1118.34 460.75 1118.34 459.75C1118.34 458.75 1118.54 458.25 1118.94 458.25C1122.54 458.25 1125.21 457.833 1126.94 457C1128.67 456 1129.81 454.333 1130.34 452C1131.01 449.667 1131.34 446 1131.34 441V391.5C1131.34 385.833 1130.81 381.75 1129.74 379.25C1128.67 376.75 1126.87 375.5 1124.34 375.5C1122.21 375.5 1118.61 376.75 1113.54 379.25H1113.14C1112.61 379.25 1112.21 378.917 1111.94 378.25C1111.81 377.417 1112.01 376.833 1112.54 376.5L1135.74 362.75L1136.94 362.5C1138.14 362.5 1139.41 364.417 1140.74 368.25C1142.07 372.083 1142.74 377 1142.74 383V383.25C1148.21 375.25 1152.54 369.833 1155.74 367C1158.94 364 1162.01 362.5 1164.94 362.5ZM1226.65 464.25C1217.98 464.25 1210.72 461.917 1204.85 457.25C1198.98 452.417 1194.65 446.25 1191.85 438.75C1189.05 431.25 1187.65 423.333 1187.65 415C1187.65 404.333 1189.78 395.083 1194.05 387.25C1198.32 379.25 1203.78 373.167 1210.45 369C1217.25 364.667 1224.18 362.5 1231.25 362.5C1237.12 362.5 1242.45 364 1247.25 367C1252.18 369.833 1254.65 373.417 1254.65 377.75C1254.65 379.917 1253.98 381.833 1252.65 383.5C1251.45 385 1249.78 385.75 1247.65 385.75C1244.05 385.75 1241.12 383 1238.85 377.5C1237.12 374.167 1235.25 371.667 1233.25 370C1231.25 368.333 1228.38 367.5 1224.65 367.5C1217.18 367.5 1211.32 371.167 1207.05 378.5C1202.92 385.667 1200.85 395.333 1200.85 407.5C1200.85 421.5 1203.65 433 1209.25 442C1214.85 451 1223.25 455.5 1234.45 455.5C1242.58 455.5 1249.38 452.75 1254.85 447.25H1255.05C1255.45 447.25 1255.78 447.5 1256.05 448C1256.45 448.5 1256.52 448.917 1256.25 449.25C1251.58 454.417 1246.85 458.25 1242.05 460.75C1237.38 463.083 1232.25 464.25 1226.65 464.25ZM1358.08 458.25C1358.48 458.25 1358.68 458.75 1358.68 459.75C1358.68 460.75 1358.48 461.25 1358.08 461.25C1355.01 461.25 1352.54 461.167 1350.68 461L1339.88 460.75L1329.08 461C1327.21 461.167 1324.74 461.25 1321.68 461.25C1321.28 461.25 1321.08 460.75 1321.08 459.75C1321.08 458.75 1321.28 458.25 1321.68 458.25C1325.28 458.25 1327.94 457.833 1329.68 457C1331.41 456 1332.61 454.333 1333.28 452C1333.94 449.5 1334.28 445.833 1334.28 441V401.25C1334.28 391.417 1332.74 384.167 1329.68 379.5C1326.74 374.667 1322.14 372.25 1315.88 372.25C1311.74 372.25 1307.54 373.667 1303.28 376.5C1299.01 379.167 1295.14 382.917 1291.68 387.75V441C1291.68 445.833 1292.01 449.5 1292.68 452C1293.34 454.333 1294.54 456 1296.28 457C1298.01 457.833 1300.68 458.25 1304.28 458.25C1304.68 458.25 1304.88 458.75 1304.88 459.75C1304.88 460.75 1304.68 461.25 1304.28 461.25C1301.21 461.25 1298.74 461.167 1296.88 461L1286.08 460.75L1275.28 461C1273.41 461.167 1270.94 461.25 1267.88 461.25C1267.48 461.25 1267.28 460.75 1267.28 459.75C1267.28 458.75 1267.48 458.25 1267.88 458.25C1271.48 458.25 1274.14 457.833 1275.88 457C1277.61 456 1278.81 454.333 1279.48 452C1280.14 449.5 1280.48 445.833 1280.48 441V311.75C1280.48 305.75 1280.01 301.417 1279.08 298.75C1278.14 296.083 1276.48 294.75 1274.08 294.75C1272.08 294.75 1269.01 295.917 1264.88 298.25H1264.48C1264.08 298.25 1263.74 297.833 1263.48 297C1263.21 296.167 1263.34 295.667 1263.88 295.5L1289.28 280H1289.88C1290.41 280 1290.81 280.25 1291.08 280.75C1291.48 281.083 1291.68 281.5 1291.68 282V383.5C1296.74 376.167 1301.74 370.833 1306.68 367.5C1311.74 364 1317.01 362.25 1322.48 362.25C1329.81 362.25 1335.48 364.833 1339.48 370C1343.48 375.167 1345.48 382.667 1345.48 392.5V441C1345.48 445.833 1345.81 449.5 1346.48 452C1347.14 454.333 1348.34 456 1350.08 457C1351.81 457.833 1354.48 458.25 1358.08 458.25Z" fill="#0D868A"/>
<path d="M86.6102 464.25C71.4102 464.25 58.2102 460.75 47.0102 453.75C35.8102 446.583 27.2102 436.917 21.2102 424.75C15.2102 412.583 12.2102 399.083 12.2102 384.25C12.2102 368.417 15.5435 354.25 22.2102 341.75C29.0102 329.25 38.3435 319.583 50.2102 312.75C62.0768 305.75 75.4102 302.25 90.2102 302.25C96.6102 302.25 103.01 302.917 109.41 304.25C115.81 305.417 120.943 307 124.81 309C126.277 309.667 127.077 310.25 127.21 310.75C127.477 311.083 127.677 312.417 127.81 314.75L130.41 349.5C130.41 350 130.01 350.333 129.21 350.5C128.543 350.667 128.143 350.417 128.01 349.75C126.277 344.25 123.477 338.25 119.61 331.75C115.743 325.25 110.677 319.583 104.41 314.75C98.1435 309.917 90.8768 307.5 82.6102 307.5C74.0768 307.5 66.2768 310.417 59.2102 316.25C52.1435 322.083 46.5435 330.417 42.4102 341.25C38.4102 352.083 36.4102 364.667 36.4102 379C36.4102 394.667 38.7435 408.667 43.4102 421C48.2102 433.333 54.8102 442.917 63.2102 449.75C71.6102 456.583 81.0768 460 91.6102 460C97.0768 460 101.277 459.25 104.21 457.75C107.143 456.25 109.277 453.333 110.61 449C111.943 444.667 112.61 438.25 112.61 429.75C112.61 421.083 112.21 415.083 111.41 411.75C110.61 408.25 108.877 405.917 106.21 404.75C103.677 403.583 99.1435 403 92.6102 403C91.8102 403 91.4102 402.333 91.4102 401C91.4102 400.5 91.4768 400.083 91.6102 399.75C91.8768 399.25 92.1435 399 92.4102 399C103.743 399.833 112.943 400.25 120.01 400.25C126.81 400.25 133.877 400 141.21 399.5C141.743 399.5 142.01 400.083 142.01 401.25C142.143 402.417 141.877 403 141.21 403C138.81 402.833 137.077 403.417 136.01 404.75C135.077 405.917 134.477 408.417 134.21 412.25C133.943 416.083 133.81 422.75 133.81 432.25C133.81 439.75 134.01 445.083 134.41 448.25C134.943 451.417 135.21 453.417 135.21 454.25C135.21 455.25 135.077 455.917 134.81 456.25C134.543 456.583 133.943 456.917 133.01 457.25C115.81 461.917 100.343 464.25 86.6102 464.25ZM232.499 447.75C233.033 447.75 233.366 448.167 233.499 449C233.766 449.667 233.633 450.167 233.099 450.5L212.499 462.75C211.966 463.083 211.299 463.25 210.499 463.25C208.366 463.25 206.299 461.833 204.299 459C202.433 456.167 201.099 452.333 200.299 447.5L191.699 455C188.633 457.833 185.766 459.917 183.099 461.25C180.433 462.417 177.433 463 174.099 463C168.366 463 164.033 461.417 161.099 458.25C158.166 455.083 156.699 450.667 156.699 445C156.699 440.5 157.566 436.917 159.299 434.25C161.033 431.417 163.166 429.25 165.699 427.75C168.366 426.083 172.033 424.25 176.699 422.25L181.699 420L199.699 411.75V397.5C199.699 386.833 198.966 379.083 197.499 374.25C196.166 369.417 193.833 367 190.499 367C183.433 367 179.433 373.833 178.499 387.5C178.099 392.5 176.899 396.083 174.899 398.25C173.033 400.417 170.366 401.5 166.899 401.5C163.566 401.5 161.099 400.667 159.499 399C158.033 397.167 157.299 394.833 157.299 392C157.299 387 159.633 382.25 164.299 377.75C168.966 373.083 174.566 369.333 181.099 366.5C187.766 363.667 193.633 362.25 198.699 362.25C204.566 362.25 209.299 364.583 212.899 369.25C216.633 373.75 218.499 380.667 218.499 390V434.25C218.499 439.083 219.166 442.833 220.499 445.5C221.966 448.167 223.966 449.5 226.499 449.5C228.366 449.5 230.299 448.917 232.299 447.75H232.499ZM199.899 443.25C199.766 442.583 199.699 441.5 199.699 440V416L191.099 421C190.699 421.167 189.366 421.833 187.099 423C184.833 424 182.833 425.75 181.099 428.25C179.499 430.75 178.699 433.667 178.699 437C178.699 441 179.699 444.167 181.699 446.5C183.833 448.667 186.233 449.75 188.899 449.75C191.033 449.75 193.233 448.833 195.499 447L199.899 443.25ZM297.679 443.75C298.212 443.75 298.612 444.083 298.879 444.75C299.279 445.417 299.279 445.917 298.879 446.25C293.946 452.417 289.146 457 284.479 460C279.812 462.833 274.879 464.25 269.679 464.25C263.812 464.25 258.812 462.5 254.679 459C250.546 455.5 248.479 449.583 248.479 441.25V385.75C248.479 380.583 247.746 377 246.279 375C244.812 373 242.146 372 238.279 372C238.146 372 237.946 371.75 237.679 371.25C237.546 370.75 237.479 370.25 237.479 369.75C237.479 369.083 237.546 368.583 237.679 368.25C237.812 367.75 238.012 367.5 238.279 367.5C245.079 367.167 250.546 365.333 254.679 362C258.946 358.667 262.212 353.583 264.479 346.75C264.746 346.083 265.279 345.75 266.079 345.75C267.012 345.75 267.479 346.083 267.479 346.75V366.75C275.212 366.583 283.879 365.833 293.479 364.5C293.746 364.5 294.012 365.167 294.279 366.5C294.679 367.667 294.879 369 294.879 370.5C294.879 372.167 294.612 373.833 294.079 375.5C293.679 377 293.212 377.667 292.679 377.5C284.012 375.167 275.612 373.917 267.479 373.75V433C267.479 439.333 268.746 444 271.279 447C273.946 450 277.412 451.5 281.679 451.5C287.012 451.5 292.212 449 297.279 444L297.679 443.75ZM377.666 444.75C377.933 444.75 378.2 445.083 378.466 445.75C378.866 446.417 378.933 446.917 378.666 447.25C373.733 453.25 368.733 457.583 363.666 460.25C358.6 462.917 353.066 464.25 347.066 464.25C338.666 464.25 331.4 462.083 325.266 457.75C319.133 453.25 314.466 447.333 311.266 440C308.066 432.5 306.466 424.417 306.466 415.75C306.466 406.083 308.4 397.167 312.266 389C316.133 380.833 321.466 374.417 328.266 369.75C335.2 364.917 343 362.5 351.666 362.5C359.933 362.5 366.333 364.833 370.866 369.5C375.4 374.167 377.666 381.417 377.666 391.25C377.666 396.417 376.933 399 375.466 399L326.866 399.25C326.733 400.417 326.666 402.333 326.666 405C326.666 419.667 329.333 431.167 334.666 439.5C340.133 447.833 347.933 452 358.066 452C361.666 452 364.733 451.5 367.266 450.5C369.8 449.5 373.133 447.667 377.266 445L377.666 444.75ZM344.066 367.5C339.666 367.5 336 369.917 333.066 374.75C330.133 379.417 328.2 385.917 327.266 394.25L356.266 393.75C356.133 385.25 355.133 378.75 353.266 374.25C351.4 369.75 348.333 367.5 344.066 367.5ZM523.46 364.75C523.86 364.75 524.06 365.25 524.06 366.25C524.06 367.25 523.86 367.75 523.46 367.75C519.727 367.75 516.327 369.583 513.26 373.25C510.327 376.75 507.527 382.417 504.86 390.25L480.26 461C480.26 461.667 479.593 462 478.26 462C476.793 462 475.993 461.667 475.86 461L451.66 401.5L431.06 461C431.06 461.667 430.393 462 429.06 462C427.86 462 427.06 461.667 426.66 461L396.06 385.5C393.127 378.333 390.593 373.583 388.46 371.25C386.46 368.917 383.927 367.75 380.86 367.75C380.46 367.75 380.26 367.25 380.26 366.25C380.26 365.25 380.46 364.75 380.86 364.75C383.26 364.75 385.26 364.833 386.86 365L400.26 365.25L414.46 365C416.46 364.833 419.193 364.75 422.66 364.75C423.06 364.75 423.26 365.25 423.26 366.25C423.26 367.25 423.06 367.75 422.66 367.75C415.86 367.75 412.46 369.583 412.46 373.25C412.46 374.25 412.86 375.667 413.66 377.5L436.86 429.75L448.66 394L445.26 385.5C442.193 378.167 439.86 373.417 438.26 371.25C436.66 368.917 434.66 367.75 432.26 367.75C431.993 367.75 431.86 367.25 431.86 366.25C431.86 365.25 431.993 364.75 432.26 364.75C434.393 364.75 436.127 364.833 437.46 365L449.46 365.25L463.66 365C465.66 364.833 468.393 364.75 471.86 364.75C472.127 364.75 472.26 365.25 472.26 366.25C472.26 367.25 472.127 367.75 471.86 367.75C469.193 367.75 466.993 368.333 465.26 369.5C463.66 370.5 462.86 371.917 462.86 373.75C462.86 375.083 463.127 376.333 463.66 377.5L486.06 430L499.26 390C500.327 386.5 500.86 383.5 500.86 381C500.86 376.833 499.66 373.583 497.26 371.25C494.993 368.917 491.927 367.75 488.06 367.75C487.66 367.75 487.46 367.25 487.46 366.25C487.46 365.25 487.66 364.75 488.06 364.75C491.66 364.75 494.327 364.833 496.06 365L508.06 365.25L516.26 365C517.727 364.833 520.127 364.75 523.46 364.75ZM602.03 447.75C602.564 447.75 602.897 448.167 603.03 449C603.297 449.667 603.164 450.167 602.63 450.5L582.03 462.75C581.497 463.083 580.83 463.25 580.03 463.25C577.897 463.25 575.83 461.833 573.83 459C571.964 456.167 570.63 452.333 569.83 447.5L561.23 455C558.164 457.833 555.297 459.917 552.63 461.25C549.964 462.417 546.964 463 543.63 463C537.897 463 533.564 461.417 530.63 458.25C527.697 455.083 526.23 450.667 526.23 445C526.23 440.5 527.097 436.917 528.83 434.25C530.564 431.417 532.697 429.25 535.23 427.75C537.897 426.083 541.564 424.25 546.23 422.25L551.23 420L569.23 411.75V397.5C569.23 386.833 568.497 379.083 567.03 374.25C565.697 369.417 563.364 367 560.03 367C552.964 367 548.964 373.833 548.03 387.5C547.63 392.5 546.43 396.083 544.43 398.25C542.564 400.417 539.897 401.5 536.43 401.5C533.097 401.5 530.63 400.667 529.03 399C527.564 397.167 526.83 394.833 526.83 392C526.83 387 529.164 382.25 533.83 377.75C538.497 373.083 544.097 369.333 550.63 366.5C557.297 363.667 563.164 362.25 568.23 362.25C574.097 362.25 578.83 364.583 582.43 369.25C586.164 373.75 588.03 380.667 588.03 390V434.25C588.03 439.083 588.697 442.833 590.03 445.5C591.497 448.167 593.497 449.5 596.03 449.5C597.897 449.5 599.83 448.917 601.83 447.75H602.03ZM569.43 443.25C569.297 442.583 569.23 441.5 569.23 440V416L560.63 421C560.23 421.167 558.897 421.833 556.63 423C554.364 424 552.364 425.75 550.63 428.25C549.03 430.75 548.23 433.667 548.23 437C548.23 441 549.23 444.167 551.23 446.5C553.364 448.667 555.764 449.75 558.43 449.75C560.564 449.75 562.764 448.833 565.03 447L569.43 443.25ZM689.438 364.75C689.705 364.75 689.838 365.25 689.838 366.25C689.838 367.25 689.705 367.75 689.438 367.75C685.172 367.75 681.438 370.083 678.238 374.75C675.172 379.25 672.372 385.833 669.838 394.5L647.638 468.25C640.572 491.583 633.772 507.917 627.238 517.25C620.838 526.75 613.705 531.5 605.838 531.5C601.838 531.5 598.772 530.417 596.638 528.25C594.505 526.25 593.438 523.25 593.438 519.25C593.438 515.417 594.372 512.5 596.238 510.5C598.105 508.5 600.372 507.5 603.038 507.5C604.505 507.5 605.705 507.75 606.638 508.25C607.705 508.75 608.972 509.583 610.438 510.75C612.972 512.917 615.372 514 617.638 514C620.705 514 623.438 512.5 625.838 509.5C628.372 506.667 630.972 501.833 633.638 495C636.305 488.333 639.505 478.75 643.238 466.25L611.238 385.5C608.305 378.333 605.972 373.583 604.238 371.25C602.638 368.917 600.638 367.75 598.238 367.75C597.838 367.75 597.638 367.25 597.638 366.25C597.638 365.25 597.838 364.75 598.238 364.75C601.972 364.75 604.838 364.833 606.838 365L615.238 365.25L629.038 365C631.172 364.833 634.038 364.75 637.638 364.75C638.038 364.75 638.238 365.25 638.238 366.25C638.238 367.25 638.038 367.75 637.638 367.75C634.172 367.75 631.638 368.167 630.038 369C628.438 369.667 627.638 370.833 627.638 372.5C627.638 373.833 628.038 375.5 628.838 377.5L652.438 437.75L664.438 394.25C665.638 389.917 666.238 386 666.238 382.5C666.238 377.833 665.172 374.25 663.038 371.75C660.905 369.083 657.838 367.75 653.838 367.75C653.572 367.75 653.438 367.25 653.438 366.25C653.438 365.25 653.572 364.75 653.838 364.75C657.438 364.75 660.172 364.833 662.038 365L674.038 365.25L682.038 365C683.638 364.833 686.105 364.75 689.438 364.75Z" fill="#0D868A"/>
</svg>
