<svg viewBox="0 0 900 900" fill="none" xmlns="http://www.w3.org/2000/svg">
<circle cx="450" cy="450" r="450" fill="#2B2823"/>
<path d="M483.898 527.86C465.551 527.86 451.075 522.485 440.468 511.735C430.005 500.985 424.773 484.932 424.773 463.575V376.5H432.083V463.36C432.083 482.853 436.598 497.402 445.628 507.005C454.658 516.465 467.415 521.195 483.898 521.195C500.381 521.195 513.138 516.465 522.168 507.005C531.198 497.402 535.713 482.853 535.713 463.36V376.5H542.808V463.575C542.808 484.932 537.505 500.985 526.898 511.735C516.435 522.485 502.101 527.86 483.898 527.86ZM621.997 527V383.165H566.742V376.5H684.347V383.165H629.092V527H621.997ZM825.535 376.5H832.845V527H825.535V376.5ZM719.97 527H712.66V376.5H719.97V527ZM826.825 453.9H718.68V447.235H826.825V453.9Z" fill="white"/>
<path d="M382.5 558C427.5 390 243.5 300 203.5 440.5C265 332 388 402.501 382.5 558Z" fill="#CDCE10"/>
<path d="M118.822 527V473.465L120.542 478.41L57.9773 376.5H65.9323L124.412 471.53H120.757L179.452 376.5H187.192L124.412 478.41L126.132 473.465V527H118.822Z" fill="white"/>
<path d="M88.793 304.245C83.5063 304.245 79.368 306.022 76.378 309.575C73.388 313.129 71.893 317.982 71.893 324.135C71.893 329.119 73.193 333.17 75.793 336.29C78.4363 339.41 81.7947 340.97 85.868 340.97C89.9847 340.97 93.798 340.19 97.308 338.63V327.06H87.688V322.315H102.833V341.425C97.1563 344.329 91.3713 345.78 85.478 345.78C81.188 345.78 77.483 344.74 74.363 342.66C71.2863 340.537 69.033 337.872 67.603 334.665C66.173 331.459 65.458 327.949 65.458 324.135C65.458 316.855 67.5813 310.897 71.828 306.26C76.0747 301.624 81.7297 299.305 88.793 299.305C92.2597 299.305 96.1163 299.999 100.363 301.385L98.738 305.935C95.228 304.809 91.913 304.245 88.793 304.245ZM139.74 345L134.605 330.375H117.64L112.505 345H106.72L122.97 300.085H129.665L145.915 345H139.74ZM132.98 325.63L127.325 309.445L126.285 305.805H126.025L124.985 309.445L119.33 325.63H132.98ZM143.339 305.025V300.085H174.669V305.025H161.799V345H156.209V305.025H143.339ZM179.881 345V300.085H206.271L205.036 305.025H185.471V319.845H203.931V324.59H185.471V340.06H207.506V345H179.881ZM241.316 300.085L250.741 338.825H251.001L260.491 300.085H266.211L254.771 345H246.776L238.261 311.59H238.001L229.551 345H221.751L210.116 300.085H216.486L225.911 338.825H226.171L235.661 300.085H241.316ZM297.289 345L292.154 330.375H275.189L270.054 345H264.269L280.519 300.085H287.214L303.464 345H297.289ZM290.529 325.63L284.874 309.445L283.834 305.805H283.574L282.534 309.445L276.879 325.63H290.529ZM320.217 345H314.627V328.945L299.872 300.085H306.047L317.487 322.77H317.812L329.382 300.085H335.492L320.217 328.945V345Z" fill="white"/>
</svg>
