<svg viewBox="0 0 1577 688" fill="none" xmlns="http://www.w3.org/2000/svg">
<path d="M48.874 538V70H132.074V346.25L246.474 215.6H345.274L213.324 362.5L366.724 538H262.724L132.074 376.15V538H48.874ZM443.658 165.55C428.491 165.55 415.924 161 405.958 151.9C396.424 142.8 391.658 131.317 391.658 117.45C391.658 103.583 396.424 92.3166 405.958 83.65C415.924 74.55 428.491 70 443.658 70C458.824 70 471.174 74.55 480.708 83.65C490.674 92.3166 495.658 103.583 495.658 117.45C495.658 131.317 490.674 142.8 480.708 151.9C471.174 161 458.824 165.55 443.658 165.55ZM402.058 538V215.6H485.258V538H402.058ZM700.799 545.8C670.465 545.8 643.382 538.433 619.549 523.7C595.715 508.967 576.865 488.817 562.999 463.25C549.132 437.683 542.199 408.65 542.199 376.15C542.199 343.65 549.132 314.833 562.999 289.7C576.865 264.133 595.715 244.2 619.549 229.9C643.382 215.167 670.465 207.8 700.799 207.8C725.065 207.8 746.299 212.35 764.499 221.45C782.699 230.55 797.432 243.333 808.699 259.8V70H891.899V538H817.799L808.699 491.85C798.299 506.15 784.432 518.717 767.099 529.55C750.199 540.383 728.099 545.8 700.799 545.8ZM718.349 473C745.215 473 767.099 464.117 783.999 446.35C801.332 428.15 809.999 404.967 809.999 376.8C809.999 348.633 801.332 325.667 783.999 307.9C767.099 289.7 745.215 280.6 718.349 280.6C691.915 280.6 670.032 289.483 652.699 307.25C635.365 325.017 626.699 347.983 626.699 376.15C626.699 404.317 635.365 427.5 652.699 445.7C670.032 463.9 691.915 473 718.349 473ZM1090.37 545.8C1061.77 545.8 1036.64 541.25 1014.97 532.15C993.305 522.617 975.972 509.617 962.972 493.15C949.972 476.683 942.172 457.617 939.572 435.95H1023.42C1026.02 448.517 1032.96 459.35 1044.22 468.45C1055.92 477.117 1070.87 481.45 1089.07 481.45C1107.27 481.45 1120.49 477.767 1128.72 470.4C1137.39 463.033 1141.72 454.583 1141.72 445.05C1141.72 431.183 1135.66 421.867 1123.52 417.1C1111.39 411.9 1094.49 406.917 1072.82 402.15C1058.96 399.117 1044.87 395.433 1030.57 391.1C1016.27 386.767 1003.06 381.35 990.922 374.85C979.222 367.917 969.689 359.25 962.322 348.85C954.955 338.017 951.272 324.8 951.272 309.2C951.272 280.6 962.539 256.55 985.072 237.05C1008.04 217.55 1040.11 207.8 1081.27 207.8C1119.41 207.8 1149.74 216.683 1172.27 234.45C1195.24 252.217 1208.89 276.7 1213.22 307.9H1134.57C1129.81 284.067 1111.82 272.15 1080.62 272.15C1065.02 272.15 1052.89 275.183 1044.22 281.25C1035.99 287.317 1031.87 294.9 1031.87 304C1031.87 313.533 1038.16 321.117 1050.72 326.75C1063.29 332.383 1079.97 337.583 1100.77 342.35C1123.31 347.55 1143.89 353.4 1162.52 359.9C1181.59 365.967 1196.76 375.283 1208.02 387.85C1219.29 399.983 1224.92 417.533 1224.92 440.5C1225.36 460.433 1220.16 478.417 1209.32 494.45C1198.49 510.483 1182.89 523.05 1162.52 532.15C1142.16 541.25 1118.11 545.8 1090.37 545.8Z" fill="#F76F55"/>
<circle cx="1356" cy="613" r="75" fill="#CDCE10"/>
<path d="M1576.26 150.502C1576.26 233.504 1441.1 398.002 1375.26 493.002C1337.93 397.002 1263.26 228.004 1263.26 138.502C1263.26 49 1350 0 1423.26 0C1496.53 0 1576.26 67.5 1576.26 150.502Z" fill="#CDCE10"/>
</svg>
