<svg viewBox="0 0 900 900" fill="none" xmlns="http://www.w3.org/2000/svg">
<circle cx="450" cy="450" r="450" fill="white"/>
<path d="M130.254 577.515C125.781 577.515 122.279 579.018 119.749 582.025C117.219 585.032 115.954 589.138 115.954 594.345C115.954 598.562 117.054 601.99 119.254 604.63C121.491 607.27 124.333 608.59 127.779 608.59C131.263 608.59 134.489 607.93 137.459 606.61V596.82H129.319V592.805H142.134V608.975C137.331 611.432 132.436 612.66 127.449 612.66C123.819 612.66 120.684 611.78 118.044 610.02C115.441 608.223 113.534 605.968 112.324 603.255C111.114 600.542 110.509 597.572 110.509 594.345C110.509 588.185 112.306 583.143 115.899 579.22C119.493 575.297 124.278 573.335 130.254 573.335C133.188 573.335 136.451 573.922 140.044 575.095L138.669 578.945C135.699 577.992 132.894 577.515 130.254 577.515ZM176.114 612L171.769 599.625H157.414L153.069 612H148.174L161.924 573.995H167.589L181.339 612H176.114ZM170.394 595.61L165.609 581.915L164.729 578.835H164.509L163.629 581.915L158.844 595.61H170.394ZM181.908 578.175V573.995H208.418V578.175H197.528V612H192.798V578.175H181.908ZM215.579 612V573.995H237.909L236.864 578.175H220.309V590.715H235.929V594.73H220.309V607.82H238.954V612H215.579ZM270.312 573.995L278.287 606.775H278.507L286.537 573.995H291.377L281.697 612H274.932L267.727 583.73H267.507L260.357 612H253.757L243.912 573.995H249.302L257.277 606.775H257.497L265.527 573.995H270.312ZM320.424 612L316.079 599.625H301.724L297.379 612H292.484L306.234 573.995H311.899L325.649 612H320.424ZM314.704 595.61L309.919 581.915L309.039 578.835H308.819L307.939 581.915L303.154 595.61H314.704ZM342.574 612H337.844V598.415L325.359 573.995H330.584L340.264 593.19H340.539L350.329 573.995H355.499L342.574 598.415V612ZM393.568 612H388.838V598.415L376.353 573.995H381.578L391.258 593.19H391.533L401.323 573.995H406.493L393.568 598.415V612ZM429.022 612.66C426.272 612.66 423.797 612.147 421.597 611.12C419.433 610.093 417.673 608.718 416.317 606.995C413.603 603.475 412.247 599.258 412.247 594.345C412.247 588.185 414.025 583.143 417.582 579.22C421.138 575.297 425.85 573.335 431.717 573.335C434.467 573.335 436.923 573.848 439.087 574.875C441.287 575.902 443.047 577.277 444.367 579C447.117 582.52 448.492 586.737 448.492 591.65C448.492 597.81 446.713 602.852 443.157 606.775C439.6 610.698 434.888 612.66 429.022 612.66ZM431.497 577.46C426.95 577.46 423.448 578.945 420.992 581.915C418.535 584.885 417.307 589.047 417.307 594.4C417.307 598.323 418.352 601.678 420.442 604.465C422.568 607.252 425.52 608.645 429.297 608.645C433.843 608.645 437.327 607.16 439.747 604.19C442.203 601.22 443.432 597.058 443.432 591.705C443.432 587.782 442.387 584.427 440.297 581.64C438.207 578.853 435.273 577.46 431.497 577.46ZM462.56 573.995V599.79C462.56 602.577 463.532 604.832 465.475 606.555C467.015 607.948 469.233 608.645 472.13 608.645C476.127 608.645 478.913 607.233 480.49 604.41C481.297 603.017 481.7 601.477 481.7 599.79V573.995H486.43V599.79C486.43 603.567 485.183 606.665 482.69 609.085C480.233 611.468 476.713 612.66 472.13 612.66C467.547 612.66 464.008 611.468 461.515 609.085C459.058 606.665 457.83 603.567 457.83 599.79V573.995H462.56ZM524.389 603.475V573.995H529.119V612H524.554L502.169 582.465H501.894V612H497.164V573.995H501.729L524.114 603.475H524.389ZM558.513 577.515C554.04 577.515 550.538 579.018 548.008 582.025C545.478 585.032 544.213 589.138 544.213 594.345C544.213 598.562 545.313 601.99 547.513 604.63C549.75 607.27 552.591 608.59 556.038 608.59C559.521 608.59 562.748 607.93 565.718 606.61V596.82H557.578V592.805H570.393V608.975C565.59 611.432 560.695 612.66 555.708 612.66C552.078 612.66 548.943 611.78 546.303 610.02C543.7 608.223 541.793 605.968 540.583 603.255C539.373 600.542 538.768 597.572 538.768 594.345C538.768 588.185 540.565 583.143 544.158 579.22C547.751 575.297 552.536 573.335 558.513 573.335C561.446 573.335 564.71 573.922 568.303 575.095L566.928 578.945C563.958 577.992 561.153 577.515 558.513 577.515ZM621.947 612L617.602 599.625H603.247L598.902 612H594.007L607.757 573.995H613.422L627.172 612H621.947ZM616.227 595.61L611.442 581.915L610.562 578.835H610.342L609.462 581.915L604.677 595.61H616.227ZM634.599 612V573.995H648.899C651.649 573.995 654.124 574.49 656.324 575.48C658.524 576.47 660.302 577.79 661.659 579.44C664.446 582.887 665.839 586.957 665.839 591.65C665.839 597.59 664.042 602.467 660.449 606.28C656.856 610.093 652.071 612 646.094 612H634.599ZM648.294 578.175H639.329V607.82H646.094C650.641 607.82 654.161 606.39 656.654 603.53C659.147 600.67 660.394 596.71 660.394 591.65C660.394 587.873 659.331 584.683 657.204 582.08C655.114 579.477 652.144 578.175 648.294 578.175ZM679.939 573.995V599.79C679.939 602.577 680.911 604.832 682.854 606.555C684.394 607.948 686.612 608.645 689.509 608.645C693.506 608.645 696.292 607.233 697.869 604.41C698.676 603.017 699.079 601.477 699.079 599.79V573.995H703.809V599.79C703.809 603.567 702.562 606.665 700.069 609.085C697.612 611.468 694.092 612.66 689.509 612.66C684.926 612.66 681.387 611.468 678.894 609.085C676.437 606.665 675.209 603.567 675.209 599.79V573.995H679.939ZM714.542 612V573.995H719.272V607.82H735.387V612H714.542ZM734.551 578.175V573.995H761.061V578.175H750.171V612H745.441V578.175H734.551ZM786.756 578.725C784.19 577.845 781.806 577.405 779.606 577.405C777.406 577.405 775.61 577.973 774.216 579.11C772.823 580.247 772.126 581.622 772.126 583.235C772.126 585.545 773.355 587.36 775.811 588.68L783.566 592.97C787.893 595.39 790.056 598.507 790.056 602.32C790.056 605.473 788.938 607.985 786.701 609.855C784.465 611.725 781.311 612.66 777.241 612.66C773.171 612.66 769.523 611.927 766.296 610.46L767.671 606.61C770.678 607.93 773.63 608.59 776.526 608.59C779.46 608.59 781.623 608.022 783.016 606.885C784.41 605.748 785.106 604.373 785.106 602.76C785.106 600.45 783.878 598.635 781.421 597.315L773.666 593.025C769.34 590.605 767.176 587.488 767.176 583.675C767.176 580.522 768.295 578.01 770.531 576.14C772.768 574.27 775.775 573.335 779.551 573.335C782.118 573.335 784.996 573.867 788.186 574.93L786.756 578.725Z" fill="black"/>
<path fill-rule="evenodd" clip-rule="evenodd" d="M330.627 632L289.176 725H373.836L405.649 648.5H571.136L602.826 725H689.526L647.941 632H590.803H564.301H412.51H374.504H330.627ZM366.284 552H445.779L488.554 449.141L531.162 552H612.17L529.896 368H448.296L366.284 552Z" fill="black"/>
<path d="M249.746 552V406.14L268.616 456.12L111.536 195H199.256L319.616 395.43H269.126L389.996 195H471.086L314.006 456.12L332.366 406.14V552H249.746Z" fill="black"/>
<path d="M640.526 410C669.101 277.321 519 195.5 473.5 306C526 224 644.388 288.685 640.526 410Z" fill="#5BBEC0"/>
</svg>
